PathFileType	4	(X/Y/Z)	RBDS024\RBDS024runT25.trc
DataRate	CameraRate	NumFrames	NumMarkers	Units	OrigDataRate	OrigDataStartFrame	OrigNumFrames
150.000000	150.000000	6	33	mm	150.000000	1687	4500
Frame#	Time	L.ASIS			L.Heel.Bottom			L.Heel.Lateral			L.Heel.Top			L.Iliac.Crest			L.MT1			L.MT5			L.PSIS			L.Shank.Bottom.Lateral			L.Shank.Bottom.Medial			L.Shank.Top.Lateral			L.Shank.Top.Medial			L.Thigh.Bottom.Lateral			L.Thigh.Bottom.Medial			L.Thigh.Top.Lateral			L.Thigh.Top.Medial			R.ASIS			R.ASY			R.Heel.Bottom			R.Heel.Lateral			R.Heel.Top			R.Iliac.Crest			R.MT1			R.MT5			R.PSIS			R.Shank.Bottom.Lateral			R.Shank.Bottom.Medial			R.Shank.Top.Lateral			R.Shank.Top.Medial			R.Thigh.Bottom.Lateral			R.Thigh.Bottom.Medial			R.Thigh.Top.Lateral			R.Thigh.Top.Medial			
		X1	Y1	Z1	X2	Y2	Z2	X3	Y3	Z3	X4	Y4	Z4	X5	Y5	Z5	X6	Y6	Z6	X7	Y7	Z7	X8	Y8	Z8	X9	Y9	Z9	X10	Y10	Z10	X11	Y11	Z11	X12	Y12	Z12	X13	Y13	Z13	X14	Y14	Z14	X15	Y15	Z15	X16	Y16	Z16	X17	Y17	Z17	X18	Y18	Z18	X19	Y19	Z19	X20	Y20	Z20	X21	Y21	Z21	X22	Y22	Z22	X23	Y23	Z23	X24	Y24	Z24	X25	Y25	Z25	X26	Y26	Z26	X27	Y27	Z27	X28	Y28	Z28	X29	Y29	Z29	X30	Y30	Z30	X31	Y31	Z31	X32	Y32	Z32	X33	Y33	Z33	

1688	11.24666666666667	2197.54815335257	930.53995187903	890.8837412137761	1814.410076245861	48.37700135236526	981.6498358090918	1837.852831994815	65.86421922528639	937.9387125178393	1829.310005579654	91.18365163966389	982.7755484796286	2093.366781819131	994.8764696180157	844.2176512528119	2040.535794687193	41.0182246260557	1008.194987131076	1995.653668838556	38.80995077070319	894.4835883627969	2016.148796100244	970.6112206406755	967.271910702991	1948.802497520079	157.7738797509736	916.0115967262581	1910.884296647526	187.3951066776296	933.6800149299532	1990.38036027891	221.7864750569415	888.8929998721552	1953.669730348802	255.6789032609496	907.4702490630403	2122.957287861694	556.1315690764625	844.506762706248	2062.995681550322	549.1460059213131	882.5854192308739	2096.907318831734	662.4892994068365	829.7385119605492	2043.257199878087	657.3273962046454	871.8255506778312	2194.344815728569	919.8710381220192	1129.994084632016	2006.300672184489	217.3499284476244	1113.685456668338	1865.625905753045	344.4304506649733	1078.130900978402	1894.164504919774	333.3917515856593	1127.407217104762	1906.935024686435	359.5611068849832	1079.668672975056	2123.427074862851	991.5027745584658	1182.259709852751	1986.060692941816	161.9433784573629	1064.978603333471	1961.426474997786	194.1338380975344	1174.096558344605	2019.70143469496	964.5238841309304	1068.566316410873	2022.270661525947	369.0998431018533	1141.37026267262	2009.370605980906	402.1479187090441	1098.754651974375	2089.236102762734	414.2016283637343	1153.363949929157	2075.572919198972	445.3424030804876	1111.806052845094	2267.38117551751	582.6811552130783	1178.764557686313	2216.598705813276	551.0195373665961	1135.699504008488	2199.479428227266	667.0093441733036	1192.377689356644	2149.607430353808	635.2838016268125	1155.430025988887	
1689	11.25333333333333	2198.128697947714	934.1140241399072	891.1784382888195	1798.23787879363	52.64243810976916	981.4373905279243	1821.962430004984	69.57269442003201	937.6823792661377	1813.710851734507	95.18402856503687	982.3929585483323	2095.964070067307	999.1530814462895	844.0825393023276	2023.600437510729	41.09063904904769	1008.298913858591	1978.972124443346	39.26352351589428	894.7082380526656	2016.822132557916	975.7016818448315	966.805763597685	1932.956032484607	161.1532525465845	916.1600895431905	1895.110369336075	190.6711621733562	934.131470708627	1974.48385401409	225.2958345477737	889.2887547977622	1937.82760496113	259.1162404008443	908.1332915655552	2112.105653173172	559.9724711931907	845.9422265054709	2052.098532496762	555.3181421130297	884.3339684983932	2089.853050120124	667.0916846498999	830.7984217937422	2036.135952890799	664.0844344947614	873.0784432721543	2194.386251151954	925.5778198877193	1129.922584682447	2024.977190941109	209.9120291422753	1112.269549780376	1876.79703738734	327.980831587896	1075.967057116638	1905.856742861312	318.7280243084643	1125.32806337179	1917.194771641283	345.7226368956871	1077.604475635126	2123.436498819613	997.6768386645206	1182.297814630175	2008.63342369418	153.3324602987334	1063.624865200908	1981.540247088888	184.0670677389157	1172.535507431976	2019.792361627598	970.2140877612258	1068.429343058641	2031.99070102128	362.0704653331102	1139.666533416429	2017.675163877649	394.1076794048187	1096.732917394852	2096.409454159654	410.6682107713312	1151.705245412531	2081.406413863952	440.8367343969965	1109.855743105757	2270.860119061236	590.9122377926618	1179.013757005128	2220.263648272739	558.3510805747858	1136.357102643695	2201.836070911726	674.1315404301333	1192.938936068408	2152.123766469734	641.579628632824	1156.504629658039	
1690	11.26	2198.912160557143	937.9070240262666	891.6958216998946	1782.39419434164	57.72324071941275	981.2636505631922	1806.421162495741	73.9665223791676	937.4445777809099	1798.566070865109	99.93770577715004	982.0067736931946	2099.125934623594	1003.685967121981	843.999879705535	2006.779681931381	41.16036684351489	1008.42034908304	1962.456436734208	39.83327369931938	894.9456324939248	2017.738166519903	981.1210744807059	966.2765777801076	1917.42305025753	165.160545303384	916.2868871989572	1879.661429094693	194.5316568004804	934.6455060729991	1958.827612832626	229.4779031090289	889.6601855586816	1922.241799453171	263.1784805334328	908.8605954183078	2101.532211611984	564.4541624884565	847.3487031215921	2041.517223414891	562.1012117145988	885.981671807798	2083.09987837408	672.2207016043462	831.8505252222526	2029.348282530825	671.3479722194095	874.2358594332045	2194.615521479041	931.8024637413757	1129.907432145666	2043.985449409173	202.5105963363736	1110.71341899483	1888.834255953146	311.1416490972061	1073.637297873451	1918.273565500188	303.677224765772	1123.11175646916	1928.16369921661	331.4277798167531	1075.403390179736	2123.676111995313	1004.352341757014	1182.31972053297	2031.731895860927	145.0571175493216	1062.133274661125	2002.144022889356	174.0928671262727	1170.838933682415	2020.09778204413	976.2254376210902	1068.247613858842	2041.914587331463	354.6877841204842	1137.867838877916	2026.240163807722	385.6184297972358	1094.60317152112	2103.530888067156	406.7339519649265	1149.994591507048	2087.250308957168	435.8382281436283	1107.822549066626	2273.711037166259	599.1002746005463	1179.359363055036	2223.305418711712	565.7870110137316	1137.050546799218	2203.83423595354	681.3937367954887	1193.562599837514	2154.25117282607	648.1517914708212	1157.614048428414	
1691	11.26666666666667	2199.864518041995	941.8872397328204	892.4399448745315	1766.956830990189	63.6493867745117	981.131335963699	1791.302168920181	79.06761723716097	937.2291637960652	1783.961974221079	105.4640082905804	981.6243011000302	2102.780772742967	1008.436447119779	843.9907383479676	1990.11399284411	41.22770071629495	1008.546810650422	1946.142466511335	40.53279926457634	895.1780020349801	2018.872787328414	986.8131205663141	965.6976471930616	1902.295708414215	169.8071473944197	916.3673668882172	1864.649329416969	198.9977374146982	935.2143691151709	1943.520583511033	234.3323035957469	889.9804470948006	1907.037995417724	267.8703890824817	909.6378175429992	2091.345312375113	569.5141438794317	848.6568578507944	2031.368795165616	569.397297740244	887.4715839108025	2076.703262689266	677.8099858449866	832.8557939402421	2022.950232499902	679.0172878027602	875.2620143139884	2194.99905884371	938.4560692907544	1129.959375667348	2063.315997375498	195.1926849471571	1109.025812253335	1901.814685214972	294.045869909497	1071.165076388619	1931.482986166064	288.3506280193094	1120.779927407363	1939.91118824743	316.7826726364552	1073.09007155279	2124.090267385943	1011.434881442105	1182.325150296501	2055.276972018395	137.1849424549147	1060.503610823889	2023.214836389341	164.2723849421262	1169.013381032301	2020.592304777812	982.488919604568	1068.025086468454	2052.109740624981	346.9559084727436	1136.005505125139	2035.131908693929	376.7157136285306	1092.413251099865	2110.680687200373	402.363882708707	1148.268559619059	2093.185739278603	430.3344737051956	1105.76484766278	2275.94667834146	607.1524573047162	1179.787467658763	2225.728768132174	573.2291218656209	1137.762278052388	2205.47151904865	688.7014143918821	1194.236923262968	2155.980168796205	654.9073477778253	1158.736372592178	
1692	11.27333333333333	2200.949593790229	946.0227732963186	893.3974439071691	1752.002953173652	70.41976990678246	981.0349890021052	1776.676807386924	84.87054918715921	937.033215677401	1769.978754095695	111.7509049743931	981.2464024296528	2106.830491338768	1013.36696480734	844.0771477679918	1973.643711825881	41.29961833094864	1008.663021173051	1930.061827015582	41.37334333819841	895.385440158847	2020.195273385193	992.7177622360272	965.0911044076759	1887.660379929536	175.078949528676	916.3749271475565	1850.177970445878	204.0636320904875	935.8238631709364	1928.664492035389	239.8345714867291	890.2226498426312	1892.332227485391	273.1715796698244	910.4472467862929	2081.630587872171	575.0735936061523	849.8077422029659	2021.750533923924	577.0972679724485	888.7686162421942	2070.696876881769	683.7815529684668	833.7829234397043	2016.97977803407	686.9830653724797	876.1415060062287	2195.503561837298	945.4280127467787	1130.082439954811	2082.968555476971	188.0114478594805	1107.215538151649	1915.790524199479	276.8178846475263	1068.576347734722	1945.534115655739	272.8557038391702	1118.353999813713	1952.484498431739	301.894914753165	1070.690288079469	2124.627179781669	1018.819541684855	1182.315678723253	2079.193860666832	129.7738994584887	1058.731302732835	2044.736046704351	154.6630194985442	1167.060781477831	2021.248671196876	988.9362841175512	1067.774577321812	2062.639283251456	338.8855208755792	1134.110674002788	2044.404211705941	367.4404766366158	1090.211731586844	2117.935303860865	397.5319372370893	1146.564262017115	2099.284179502618	424.321730213935	1103.743242198943	2277.592939080033	614.985795279523	1180.27658070584	2227.544081082185	580.5886834157403	1138.477054515077	2206.753597665009	695.9660696172581	1194.951630422497	2157.308027351498	661.7588077189985	1159.853927070396	
1693	11.28	2202.13167849457	950.2806929293318	894.5394125081681	1737.605414910693	78.00350993588972	980.9612342529206	1762.611431826424	91.34442940906897	936.8468274079312	1756.68662037694	118.7565968223059	980.8669082363253	2111.15864108781	1018.442183618347	844.2801344067252	1957.406654975071	41.39082262865863	1008.752386302002	1914.23958705914	42.36407892732873	895.5479848609278	2021.669992083903	998.7729793783994	964.4856395275672	1873.59408038985	180.9351819295314	916.2833027389447	1836.337708056431	209.695207734384	936.4530722448081	1914.349491274595	245.9355383369011	890.3618874975892	1878.225645036148	279.0361282487862	911.26827375885	2072.44827669871	581.0416778054215	850.7573042087347	2012.734576110348	585.0858097007562	889.8588564702347	2065.092911195906	690.0500058205628	834.6106511047539	2011.456303857733	695.1322445217451	876.8794103067434	2196.097875980883	952.5954707895464	1130.273365751525	2102.950226473339	181.0269543264865	1105.289087501855	1930.790026572221	259.5718890052843	1065.90193894311	1960.459654004249	257.2939591910014	1115.857134923542	1965.910610691951	286.8701552417444	1068.233629721252	2125.243349523566	1026.398640863716	1182.293620770201	2103.415489424503	122.8769899319163	1056.805728560329	2066.699832833463	145.3214817872092	1164.977318069247	2022.039976913666	995.5015672625542	1067.515560860433	2073.560806712672	330.4966467885574	1132.213481969476	2054.098608059977	357.838307135255	1088.046604162381	2125.365351060706	392.2243438923483	1144.918499209308	2105.605634739273	417.8057954465091	1101.818021206596	2278.683526508396	622.5251254177967	1180.799046546013	2228.763443890984	587.7865300824957	1139.182814134752	2207.691510924783	703.1066473087216	1195.697461740902	2158.237002239862	668.6257652945241	1160.953053727672	
